Coordinates
version=1
nRows=21
nColumns=22
inDegrees=yes

Units are S.I. units (second, meters, Newtons, ...)
If the header above contains a line with 'inDegrees', this indicates whether rotational values are in degrees (yes) or radians (no).

endheader
time	pelvis_tilt	pelvis_list	pelvis_rotation	pelvis_tx	pelvis_ty	pelvis_tz	hip_flexion_r	hip_adduction_r	hip_rotation_r	knee_angle_r	ankle_angle_r	subtalar_angle_r	hip_flexion_l	hip_adduction_l	hip_rotation_l	knee_angle_l	ankle_angle_l	subtalar_angle_l	lumbar_extension	lumbar_bending	lumbar_rotation
      2.98000000	      7.55203844	     -1.52923580	    -36.99173925	     -0.32811128	      0.91901147	     -0.37556794	     -8.09610841	      2.70199493	      6.51162181	    -50.79641293	    -13.91510260	      7.75214498	     16.32162018	      1.69944569	      0.66191447	    -31.21673883	     14.46802047	     -8.75874644	    -14.08387233	     -1.17699167	     -8.19113165
      2.99000000	      7.55608971	     -1.41316016	    -37.60102481	     -0.31999120	      0.92037450	     -0.37020092	     -6.12722696	      2.26161824	      5.93988915	    -53.43471764	    -14.52706963	      8.35523323	     15.49959696	      1.74486012	     -0.01164952	    -30.93117167	     15.16964128	     -9.15850695	    -14.16618446	     -1.25840951	     -8.51613975
      3.00000000	      7.51292404	     -1.34882933	    -38.20339396	     -0.31209495	      0.92172356	     -0.36489209	     -4.10382218	      1.91607850	      5.38717075	    -55.87853137	    -14.47632913	      8.86212224	     14.70076345	      1.75260231	     -0.59592215	    -30.64366124	     15.84025720	     -9.61340121	    -14.25377626	     -1.25059365	     -8.83733735
      3.01000000	      7.45429178	     -1.33745390	    -38.80399027	     -0.30439437	      0.92312536	     -0.35957966	     -2.08708216	      1.64196695	      4.84106763	    -58.07019836	    -13.79913440	      9.10678074	     13.88883984	      1.72757783	     -1.13840852	    -30.34911745	     16.41334731	    -10.02474738	    -14.36965497	     -1.18466177	     -9.15206411
      3.02000000	      7.32946076	     -1.38349813	    -39.35084003	     -0.29683359	      0.92452442	     -0.35431659	     -0.06902117	      1.48217969	      4.24782381	    -59.95845519	    -12.70626951	      9.13010797	     13.11850652	      1.65234388	     -1.53264428	    -30.07437602	     17.02784631	    -10.60731304	    -14.46602626	     -1.01011397	     -9.50465187
      3.03000000	      7.18734215	     -1.49701459	    -39.85195661	     -0.28940345	      0.92600877	     -0.34905145	      1.87671413	      1.39519306	      3.58127512	    -61.51203743	    -11.34977146	      8.75554594	     12.31555900	      1.54250015	     -1.79292062	    -29.78296640	     17.67230367	    -11.29027931	    -14.59322472	     -0.76719270	     -9.84072024
      3.04000000	      7.05028189	     -1.68283776	    -40.30737407	     -0.28208506	      0.92760935	     -0.34373921	      3.69738016	      1.36195504	      2.83268826	    -62.70850475	     -9.78125175	      8.08852247	     11.45889836	      1.37820588	     -2.03557898	    -29.48006236	     18.21609979	    -11.86644652	    -14.76800685	     -0.47028851	    -10.18041750
      3.05000000	      6.90443064	     -1.93285543	    -40.71166880	     -0.27486768	      0.92929755	     -0.33835873	      5.39518934	      1.38478491	      1.99694182	    -63.54478097	     -8.14647391	      7.20248554	     10.55010229	      1.15585887	     -2.24033728	    -29.14134153	     18.72475734	    -12.37548986	    -14.96948039	     -0.12286193	    -10.52469270
      3.06000000	      6.75096023	     -2.23937371	    -41.07623813	     -0.26772594	      0.93105279	     -0.33290286	      6.96298441	      1.44631395	      1.07601870	    -64.02575773	     -6.51252804	      6.22382944	      9.58445089	      0.87602578	     -2.43632619	    -28.75556465	     19.19047727	    -12.78245981	    -15.19186316	      0.26984141	    -10.85162523
      3.07000000	      6.59408360	     -2.59426517	    -41.41020944	     -0.26065719	      0.93283546	     -0.32731105	      8.39780120	      1.54632789	      0.09077291	    -64.17489860	     -4.92389817	      5.26524124	      8.55866071	      0.53976823	     -2.64917263	    -28.32181693	     19.61910003	    -13.07421303	    -15.42469494	      0.68474675	    -11.15616194
      3.08000000	      6.44065351	     -2.97664549	    -41.73532100	     -0.25364130	      0.93459441	     -0.32161221	      9.71054017	      1.64368183	     -0.95465379	    -64.01288169	     -3.43517550	      4.40477678	      7.48335475	      0.16577160	     -2.92840045	    -27.84533848	     20.05053931	    -13.24584785	    -15.66694263	      1.10739568	    -11.42194261
      3.09000000	      6.30181027	     -3.35149475	    -42.06621150	     -0.24667642	      0.93624835	     -0.31579134	     10.92751725	      1.70033132	     -2.04342559	    -63.58556680	     -2.06002533	      3.66832477	      6.37997709	     -0.21220368	     -3.30971959	    -27.34125948	     20.48906316	    -13.31093175	    -15.90115898	      1.49329310	    -11.65697499
      3.10000000	      6.16271876	     -3.72511235	    -42.41600450	     -0.23975804	      0.93779629	     -0.30984323	     12.04422108	      1.75524504	     -3.12181322	    -62.88701797	     -0.79849910	      3.19110926	      5.23639383	     -0.59306295	     -3.72915644	    -26.77539199	     20.86178216	    -13.29278563	    -16.12255227	      1.86689186	    -11.85320769
      3.11000000	      6.04376451	     -4.05945338	    -42.79109660	     -0.23289790	      0.93913816	     -0.30378865	     13.09172148	      1.74890530	     -4.20090270	    -61.97395664	      0.33365907	      2.79280687	      4.08553831	     -0.93782181	     -4.25099235	    -26.18861833	     21.23383479	    -13.21373149	    -16.32605062	      2.17602678	    -12.02500845
      3.12000000	      5.94483700	     -4.35640549	    -43.19352458	     -0.22608554	      0.94026430	     -0.29763847	     14.06603444	      1.69199999	     -5.26004624	    -60.85450459	      1.33126501	      2.47738350	      2.91888320	     -1.23538362	     -4.83317242	    -25.56784219	     21.58755901	    -13.09056367	    -16.51614884	      2.42914046	    -12.16740280
      3.13000000	      5.86861582	     -4.60696373	    -43.62384658	     -0.21931768	      0.94114418	     -0.29139735	     14.97459130	      1.58210804	     -6.28677407	    -59.54733727	      2.20195479	      2.19198055	      1.74342217	     -1.47149090	     -5.46778757	    -24.91606934	     21.92516464	    -12.93312858	    -16.69002819	      2.61767900	    -12.28632666
      3.14000000	      5.82151362	     -4.80353882	    -44.07751428	     -0.21258563	      0.94174780	     -0.28507603	     15.82578241	      1.40639088	     -7.28534276	    -58.07689508	      2.94400728	      1.88337870	      0.56564953	     -1.63369252	     -6.15540243	    -24.24192674	     22.25750281	    -12.73460943	    -16.84721720	      2.73425297	    -12.40200192
      3.15000000	      5.78859234	     -4.93943602	    -44.54609746	     -0.20590315	      0.94204617	     -0.27868871	     16.63808044	      1.18149338	     -8.25067111	    -56.44979973	      3.57427611	      1.59863626	     -0.58606761	     -1.72297740	     -6.86210687	    -23.55787032	     22.58167907	    -12.52115003	    -16.97267239	      2.78501675	    -12.51751680
      3.16000000	      5.77652808	     -5.01887788	    -45.02054275	     -0.19924511	      0.94203924	     -0.27223752	     17.40418132	      0.90327611	     -9.19247616	    -54.67835893	      4.11861641	      1.33101323	     -1.71263856	     -1.74023519	     -7.58729364	    -22.87669368	     22.92920796	    -12.28081718	    -17.07072435	      2.77485877	    -12.64903848
      3.17000000	      5.78489251	     -5.04815634	    -45.48345855	     -0.19264561	      0.94174427	     -0.26574581	     18.12486853	      0.58357458	    -10.11849345	    -52.77099171	      4.53494342	      1.06718826	     -2.80541187	     -1.69410392	     -8.31219122	    -22.20753556	     23.27155745	    -12.00020714	    -17.15327972	      2.70688183	    -12.80178356
      3.18000000	      5.80566744	     -5.02386390	    -45.92723856	     -0.18609325	      0.94115021	     -0.25921163	     18.80906092	      0.22997473	    -11.02990726	    -50.73542469	      4.83873289	      0.83554641	     -3.84351293	     -1.59139497	     -9.02829827	    -21.57159417	     23.63816918	    -11.68961854	    -17.20783541	      2.58807943	    -12.98313681
